<svg id="Layer_1" data-name="Layer 1" xmlns="http://www.w3.org/2000/svg" viewBox="0 0 315.57 315.56"><defs><style>.cls-1{fill:#39b54a;}</style></defs><path class="cls-1" d="M638.27,452.89l-13-13-5.12,7.92,0-.1-7.93,12.2v-.09l-1.82,2.77,9.08,9.09a40,40,0,0,1,0,56.59l-91.18,91.16a40,40,0,0,1-56.58,0l-91.16-91.16a40,40,0,0,1,0-56.59l91.16-91.15a40,40,0,0,1,56.58,0l36.05,36,4-4.59,1-1.18h0l1.47-1.67-.08-.07,3.74-4.12,1-1.14h0l1.07-1.18,3.17-3.61.06.05,1.51-1.69-.06-.07.65-.69-34.9-34.9a66.61,66.61,0,0,0-94.2,0l-91.16,91.16a66.6,66.6,0,0,0,0,94.21l91.16,91.17a66.61,66.61,0,0,0,94.2,0l91.18-91.17a66.6,66.6,0,0,0,0-94.21Z" transform="translate(-342.21 -342.22)"/><rect class="cls-1" x="598.93" y="387.61" width="0.11" height="0.02" transform="translate(-440.86 194.85) rotate(-45)"/><path class="cls-1" d="M614.09,390.75c-.59.49-1.17,1-1.74,1.5a63.74,63.74,0,0,1,5.11,6.6c.59.86,1.13,1.88,0,2.71a1.49,1.49,0,0,1-2.16-.52A75.54,75.54,0,0,0,610,394.4c-.56.52-1.13,1-1.69,1.56a58.74,58.74,0,0,1,7.83,11.42c.51,1,1.33,2.18,0,3S614,410,613.48,409A55.43,55.43,0,0,0,606,398.16l-1.68,1.62a55.43,55.43,0,0,1,11,19.13l.23.68,1.55-2.44c-.24-.66-.49-1.32-.75-2-.41-1.06-.94-2.36.54-2.92s1.88.57,2.3,1.55c.5-.79,1-1.58,1.48-2.38-.77-1.76-1.62-3.5-2.5-5.22-.47-.94-.93-2,.26-2.72s1.92.19,2.43,1.13c.64,1.16,1.25,2.34,1.82,3.53.48-.78,1-1.57,1.43-2.36A67.22,67.22,0,0,0,614.09,390.75Z" transform="translate(-342.21 -342.22)"/><polygon class="cls-1" points="268.87 34.78 269.39 34.57 268.98 34.91 268.87 34.78"/><polygon class="cls-1" points="280.14 30.8 280.28 30.77 280.15 30.81 280.14 30.8"/><path class="cls-1" d="M631.84,392.4c1-1.67,2.17-3.51.69-5.39-1.76-2.25-4.36-2.44-7-2A16.33,16.33,0,0,1,631.84,392.4Z" transform="translate(-342.21 -342.22)"/><path class="cls-1" d="M562.19,445.92l-.2-.13-1.48,1.71L559,449.26a34,34,0,0,1,7.84,5.14c6.19,5.24,10.35,11.79,13.4,19l2.25-3.38C578.16,460.3,571.81,452,562.19,445.92Z" transform="translate(-342.21 -342.22)"/><polygon class="cls-1" points="269.39 34.57 268.98 34.91 268.87 34.78 269.39 34.57"/><path class="cls-1" d="M624,385.38a19.48,19.48,0,0,0-2.42.77,53.1,53.1,0,0,1,4.19,5.58c.53.82.87,1.73,0,2.51a1.36,1.36,0,0,1-2.14-.34c-1.6-2.14-3.25-4.25-5-6.31q-1,.59-2,1.23a68.64,68.64,0,0,1,9.4,13.74l1.36-2.33c-.35-.69-.7-1.39-1-2.08a1.48,1.48,0,0,1,.46-1.93,1.43,1.43,0,0,1,1.71.09,3.82,3.82,0,0,1,.74.63c.45-.78.89-1.56,1.32-2.35C628.6,391.49,626.43,388.45,624,385.38Z" transform="translate(-342.21 -342.22)"/><path class="cls-1" d="M604.16,404.7c-.69-.92-1.41-1.8-2.16-2.66-.53.51-1,1-1.56,1.55a50.55,50.55,0,0,1,6.48,9.73c.46.89.51,1.87-.52,2.42s-1.77-.18-2.23-1a54.83,54.83,0,0,0-6-8.84c-.49.5-1,1-1.46,1.49.49.65,1,1.31,1.42,2a1.53,1.53,0,0,1-.28,2.21,1.45,1.45,0,0,1-2.14-.47c-.38-.51-.79-1-1.2-1.47-1.51,1.56-3,3.14-4.49,4.72a55.39,55.39,0,0,1,5.89,10.29c.48,1.07,1.1,2.26-.21,3s-2-.5-2.53-1.5a78.47,78.47,0,0,0-5.4-9.37q-2.4,2.6-4.79,5.22a29.14,29.14,0,0,1,6,6.76,1.52,1.52,0,0,1-.28,2.21c-.83.61-1.58.23-2.13-.48a44.05,44.05,0,0,0-5.73-6.09c-1.26,1.39-2.51,2.8-3.76,4.2a59.46,59.46,0,0,1,10.53,9c.74.8,1.85,1.76.75,2.9s-2.13.2-2.9-.63A55.58,55.58,0,0,0,574.9,431c-.63.71-1.26,1.42-1.88,2.14a60.56,60.56,0,0,1,5.6,4.72c.79.75,2,1.64.93,2.84s-2.12.34-2.94-.44a56.16,56.16,0,0,0-5.68-4.74l-2.46,2.82a47.12,47.12,0,0,1,9,7.29c2,2,3.65,4.22,5.42,6.38.67.82,1.5,1.86.34,2.75s-2-.11-2.69-.92c-1.79-2-3.43-4.17-5.3-6.1a42.67,42.67,0,0,0-8.81-7.08c-.83.94-1.65,1.89-2.48,2.84,4.78,2.73,8.57,6.62,12.06,10.29a76.57,76.57,0,0,1,8.4,13.33l2.39-3.58c-.55-1.05-1.14-2.1-1.75-3.13a11.93,11.93,0,0,1-.74-1.24c-.42-.89-.89-1.89.23-2.55,1-.56,1.66.17,2.16.89.71,1,1.38,2.08,2,3.17l1.44-2.17a70.11,70.11,0,0,0-8.84-13.33c-.73-.87-1.64-1.93-.42-2.94s2.11.09,2.85.94a67.53,67.53,0,0,1,7.81,11.11,5.8,5.8,0,0,1,.56,1.26l2.28-3.45a69.58,69.58,0,0,0-4.59-7c-.67-.91-1.52-2-.24-2.95s2.1.21,2.79,1.11a59.9,59.9,0,0,1,4,5.89c1.25-1.9,2.5-3.82,3.75-5.73A70.18,70.18,0,0,0,596.77,433c-.43-1.06-1-2.34.5-2.92s2,.72,2.43,1.76a62.3,62.3,0,0,1,2.79,7.94l2.08-3.17a52.92,52.92,0,0,0-5.27-19.2c-.32-.65-.67-1.29-.94-2s-.39-1.65.49-2.18,1.61,0,2.1.68a19.18,19.18,0,0,1,1.5,2.7,59.35,59.35,0,0,1,4.81,15.82l2-3.07a54.31,54.31,0,0,0-2.09-7.47,20.11,20.11,0,0,1-.71-2.37,1.44,1.44,0,0,1,.81-1.8,1.39,1.39,0,0,1,1.84.7,12.18,12.18,0,0,1,1,2.22c.57,1.67,1.06,3.35,1.5,5,.54-.84,1.08-1.69,1.63-2.53A56,56,0,0,0,604.16,404.7Zm-8.45,36.19c-.6.33-1.06,0-1.36-.51a30.06,30.06,0,0,0-4.11-5.61c-.79-.85-.25-1.47.79-2a18.83,18.83,0,0,1,5.08,6.72A1,1,0,0,1,595.71,440.89Z" transform="translate(-342.21 -342.22)"/><path class="cls-1" d="M448.1,486.38a1.21,1.21,0,0,1,2,0c1,1.73.31,3.09-.67,4.6l1.95,2.76a5.34,5.34,0,0,1,1.77-3.48,1.48,1.48,0,0,1,1.8-.13,1.44,1.44,0,0,1,.73,1.67c-.65,1.83-1.07,3.75-1.76,5.59l2,2.93c3.07-11.73,9-21.72,18.65-29.46a20.2,20.2,0,0,1,1.84-1.35c.95-.61,2-1.21,2.89,0s-.07,2.05-1,2.7c-11,8-17.13,19-19.8,31.91l2.32,3.36c.24-1.41.47-2.82.77-4.22.21-1,.86-1.83,2.08-1.52,1.05.26,1.22,1.17,1.11,2.07-.34,2.59-.69,5.19-1.05,7.87l2.53,3.65a1.34,1.34,0,0,1,1.48-.76c1,.13,1.39,1,1.44,1.92s.1,2.15.15,3.25l2.49,3.58c-.25-1.52-.41-3.07,1.61-3.24,2.51-.2,1.46,2.85,2,4.44a5.16,5.16,0,0,1,.14,1c.22,1.53.51,3,.87,4.51q6.22,9,12.49,17.88c4.79,2.5,10.11,2.29,15.72-.69,1-.56,2.22-1.52,3.1,0s-.43,2.17-1.38,2.9c-3.73,2.83-9.17,3.55-14.13,2.49a25.56,25.56,0,0,0,3.14,3.4,19.23,19.23,0,0,0,7.33-1c7.44-2.64,11.93-8.09,14.61-15.27.34-.92.57-1.88.88-2.81s.79-2.23,2.2-1.86,1.31,1.58,1,2.69c-2.52,9.5-7.77,16.71-17.22,20.32a20.28,20.28,0,0,1-4.28,1.11,19.32,19.32,0,0,0,3.12,1.32,20.23,20.23,0,0,0,10.26-6c.87-.92,1.79-2.43,3.2-1.18,1.57,1.39.07,2.6-.84,3.57a24.24,24.24,0,0,1-5.34,4.31,23.66,23.66,0,0,0,4.84-1,50.89,50.89,0,0,0,4.88-9.1c.51-1.23.84-3.2,2.76-2.38s.78,2.47.29,3.69a50.4,50.4,0,0,1-2.35,5,29.22,29.22,0,0,0,5.47-5,1.59,1.59,0,0,1-.58-1.65,15.43,15.43,0,0,1,.49-1.89c4.7-15.94,5.38-31.72-1.88-47.18-.52-1.12-1-2.44.44-3.12s2.08.68,2.64,1.74c3,5.56,4.19,11.65,5.29,17.33a79.48,79.48,0,0,1-2.49,29.67l.26-.38,3.48-5.1a73.53,73.53,0,0,0,1.41-12.29c0-.55,0-1.1,0-1.63.15-1.1.31-2.35,1.78-2.29,1.25.05,1.48,1.17,1.52,2.17a43.55,43.55,0,0,1-.06,4.57c-.07,1-.15,2-.26,3l2.68-3.93a80.15,80.15,0,0,0-.28-12.07c-.16-1.52-1-3.83,1.21-4.13s1.83,2.18,2.2,3.66c.13.53.14,1.08.28,2.2.11,1.7.16,3.4.17,5.09l2.59-3.8q-.12-2.72-.42-5.43a58.28,58.28,0,0,0-9.23-26.35c-.42-.64-.87-1.26-1.24-1.92-.46-.82-.64-1.69.21-2.37s1.69-.25,2.3.44a20.8,20.8,0,0,1,1.95,2.63,64.34,64.34,0,0,1,9.52,28.46l2.32-3.41a64.37,64.37,0,0,0-6.19-20.14,19.6,19.6,0,0,1-1.07-2.39,1.54,1.54,0,0,1,.61-2,1.48,1.48,0,0,1,2,.49,12.91,12.91,0,0,1,1.4,2.19,71.93,71.93,0,0,1,6,17.75l1.82-2.68c-.13-.62-.26-1.24-.38-1.86-.19-1-.11-2.09,1.11-2.4a1.42,1.42,0,0,1,1.69.7l1.85-2.74a74.14,74.14,0,0,0-6.31-15.35c-.58-1.06-1.31-2.34.17-3.14s2.17.53,2.77,1.57a71.71,71.71,0,0,1,5.8,13.15c0,.05,0,.09,0,.13q5.12-7.54,10.2-15.1a2.12,2.12,0,0,1-.21-.36,69.93,69.93,0,0,0-9-13.65c-.73-.87-1.64-1.93-.42-2.93s2.11.08,2.85.93a67.19,67.19,0,0,1,7.81,11.12,5.8,5.8,0,0,1,.76,2.23l2.25-3.36c-3-7.38-6.88-14.19-13.15-19.52a31.71,31.71,0,0,0-8.16-5.26l-1.52,1.76A56.44,56.44,0,0,1,562,460c.65.78,1.13,1.7.32,2.63a1.44,1.44,0,0,1-2.29-.06c-2.18-2.26-4.41-4.45-6.82-6.56-.53.61-1.06,1.23-1.6,1.84a75.8,75.8,0,0,1,17.79,23,4.15,4.15,0,0,1-.62,5.12c-1.63-1.32-2.14-3.17-3-4.76a72.25,72.25,0,0,0-16.39-20.79l-1.59,1.84a68.26,68.26,0,0,1,6.38,6.35c.73.83,1.44,1.83.32,2.85a1.57,1.57,0,0,1-2.34-.25,79.39,79.39,0,0,0-6.57-6.41L544,466.59a63.24,63.24,0,0,1,9.94,11.11c.67.95,1.69,2.11.38,3.15s-2.27-.09-3-1.07a58.64,58.64,0,0,0-9.57-10.64L540.12,471a58.52,58.52,0,0,1,14.47,18.9,50.15,50.15,0,0,1,3.54,8.56c.17,1.21.38,2.39-.83,2.72-1.78.49-2.18-1.06-2.6-2.27A60.21,60.21,0,0,0,541,476.49c-1-1-2-2-3.08-2.88-.51.58-1,1.16-1.51,1.75a52.81,52.81,0,0,1,8.64,9.82c.61.87.79,1.9-.22,2.61s-1.88,0-2.48-.78a57.4,57.4,0,0,0-8.17-9.06l-1.4,1.63a32.72,32.72,0,0,1,2.49,2.63,1.62,1.62,0,0,1,0,2.36,1.51,1.51,0,0,1-2.3-.21c-.78-.77-1.58-1.5-2.4-2.21-.48.55-.95,1.11-1.43,1.67A43.8,43.8,0,0,1,536.76,494a56.32,56.32,0,0,1,5.86,15.55c.27,1.21.67,2.58-.85,3.06s-2-.93-2.3-2.08a76.64,76.64,0,0,0-4.07-11.72,41.82,41.82,0,0,0-8.52-12.45c-.43.5-.86,1-1.28,1.49,6.37,6.3,9.7,14.21,11.54,22.86.65,3.08.89,6.25,1.26,9.38.13,1.19.29,2.69-1.35,2.83s-1.83-1.32-2-2.52c-.46-3-.71-6.06-1.32-9-1.59-7.81-4.56-15-10.18-20.83l-.14-.13-1.56,1.83a20.28,20.28,0,0,1,1.63,2,1.67,1.67,0,0,1,0,2.36,1.43,1.43,0,0,1-2.28-.16,8.34,8.34,0,0,0-1.61-1.58L517.75,497c4.24,4,6.55,9,8.2,14.34,3.35,10.89,2.48,21.8-.22,32.66-.3,1.21-.49,3-2.34,2.45s-1.12-2.1-.85-3.35c2.24-10.13,3.29-20.25.18-30.43a33.43,33.43,0,0,0-6-11.91,6.57,6.57,0,0,1-1-1.44l-1.55,1.8c-2.63,3.08-4.16,3.16-6.55.16-.32,0-.64-.13-1-.14a8,8,0,0,0-8.32,5.08,15.9,15.9,0,0,0-1.05,9c.57,4.1,1.17,8.21,1.74,12.32.3,2.2,0,4.27-2.36,5.17s-4.22-.52-5.47-2.44c-1.7-2.61-2.3-5.64-2.84-8.65-.19-1.08-.05-2.39,1.28-2.67s1.66,1,2,2c.89,2.81.89,6,3.43,8.48,1.12-1.65.52-2.79.32-4-.89-5.26-2.21-10.49-1.52-15.89.78-6.06,4.53-10.66,9.47-11.71a9.54,9.54,0,0,1,1.55-.2l-1.47-1.92c-8.66,2.77-11.07,10-12,18.21-.14,1.18-.12,2.68-1.78,2.61s-1.55-1.47-1.55-2.72c0-9.32,5.15-17.83,12.42-20.67l.74-.26-1.51-2c-7.82,3.85-11.45,10.66-12.95,19-.2,1.13-.7,2.22-2.1,2-1.2-.23-1.38-1.31-1.22-2.34,1.41-9.18,5.35-16.71,13.95-21.16l.26-.13-1.33-1.72c-.59.26-1.24.44-1.8.72-1,.46-2.22.31-2.31-.93-.12-1.56.83-2.18,1.92-2.62-.36-.48-.73-.95-1.1-1.43-12.63,6.49-16.82,18-17.82,31.32,0,.66-.13,1.3-.21,2-.12,1-.4,2-1.68,2s-1.54-1-1.59-1.93c.29-14.07,5.36-28.4,18.71-35.79l.5-.26-1.11-1.44c-11.85,6.11-17.46,16.51-19.82,29.24-.32,1.75.58,5.24-2.43,4.66-2.7-.52-1-3.56-.71-5.39,2.28-13.49,8.53-24.42,20.84-31.23h0l-1.23-1.59a43.4,43.4,0,0,0-19.44,22.54c-.46,1.16-.65,2.61-2.3,3-1.84-.4-1.63-1.7-1.2-3a46.25,46.25,0,0,1,20.86-25.18l-1.57-2.07a2.24,2.24,0,0,1-1.35-.7,1.06,1.06,0,0,1-.24-1.38c-.61-.81-1.23-1.61-1.84-2.41a52.3,52.3,0,0,0-20.59,20.6c-.37.66-.73,1.34-1.15,2-.52.79-1.25,1.34-2.2.84a1.59,1.59,0,0,1-.62-2.28,66.16,66.16,0,0,1,3.53-6.26A55.14,55.14,0,0,1,477,462.24l.49-.28-.48-.63a11.94,11.94,0,0,0-1.17-1.33c-1.84,1.2-3.36,2.15-4.81,3.17a58.67,58.67,0,0,0-17.33,18.89c-.62,1.07-1.14,2.82-2.82,1.95-1.87-1-.69-2.47,0-3.65a60.66,60.66,0,0,1,19.23-20.62,5.14,5.14,0,0,1,4.19-1c-2.5-1.54-5.33-1.51-8.17-.75C456,460.71,449,467.14,445,476.79c-1.59,3.82-.54,7.2,1.83,10.52.15.2.29.41.44.62A3.72,3.72,0,0,1,448.1,486.38Zm107.69-13.07c1.19-.93,2-.06,2.71.85a69.51,69.51,0,0,1,8.45,15c.71,1.79.31,3.37-1.23,5.49-1.32-2.93-2.39-5.39-3.54-7.82a76.59,76.59,0,0,0-6.29-10.67C555.26,475.28,554.64,474.21,555.79,473.31ZM504.42,544c-.85.61-1.82,1-2.65.12s-.41-1.84.44-2.54c5.1-4.25,5.05-10.12,4.83-15.92a48.57,48.57,0,0,0-2-12.23c-.36-1.17-1-2.9.73-3.4,1.94-.58,2.24,1.29,2.57,2.61.71,2.85,1.62,5.67,1.71,7.84.72,5.92.82,11-.61,16A13.48,13.48,0,0,1,504.42,544Zm10.09-42.36c2.41,1.42,3.51,3.8,4.49,6.18a49.79,49.79,0,0,1,3.61,22.35c-.08,1.32-.14,2.92-2,2.69-1.58-.2-1.41-1.64-1.37-2.87.31-8.73-.8-17.15-5.52-24.78C512.9,503.87,513.3,502.69,514.51,501.6Zm-15.57,9.23c.22-3.14,1.72-5.38,4.79-6.35a6.81,6.81,0,0,1,7.88,2.44,20.41,20.41,0,0,1,4.13,10.94c1.17,9.8.76,17.23-2.57,24.28a18.23,18.23,0,0,1-1.3,2.27c-.58.87-1.37,1.55-2.46,1s-1-1.61-.45-2.55c5.07-8.57,4.48-17.74,2.89-27a15.22,15.22,0,0,0-2.52-6.32,3.79,3.79,0,0,0-4.23-1.75,3.35,3.35,0,0,0-2.81,3.5c-.07,1.2-.06,2.72-1.71,2.61S498.84,512.17,498.94,510.83Zm-14.29,3.5c1.43,0,1.61,1.26,1.73,2.36.5,4.32.7,8.7,2.33,12.82a18.34,18.34,0,0,0,2.68,4.84,5.37,5.37,0,0,0,5.83,1.93c2.35-.5,3.42-2.14,4-4.26.8-2.95,0-5.85-.45-8.74-.21-1.62-.4-3.24-.62-4.86-.14-1-.11-2.08,1.14-2.34,1-.23,1.66.53,1.89,1.42,1.4,5.39,2.82,10.84,1,16.38a8.73,8.73,0,0,1-15,3c-5.11-5.88-5.81-13.21-6.18-20.56C483,515.36,483.38,514.29,484.65,514.33ZM483.93,493a23.35,23.35,0,0,1,3.86-4.43c.86-.8,1.92-1.34,2.85-.26s.17,1.86-.55,2.59c-6.64,6.65-9.2,15-9.44,24.08-.2,7.34.62,14.63,4.43,21.19,2.49,4.29,5.72,7.44,11.24,7,1.25-.12,2.94-.14,2.92,1.72,0,1.63-1.6,1.54-2.75,1.65-5.73.54-9.87-2.2-13.06-6.6a30.88,30.88,0,0,1-5.61-15C476.29,512.31,477.92,502.19,483.93,493Zm-20.6-31.72a74.12,74.12,0,0,0-16.56,20.57C445.42,473.53,453.85,464.31,463.33,461.26Z" transform="translate(-342.21 -342.22)"/></svg>