<svg id="Layer_1" data-name="Layer 1" xmlns="http://www.w3.org/2000/svg" viewBox="0 0 457.21 154.31"><defs><style>.cls-1{fill:#ffffff;}</style></defs><path class="cls-1" d="M520.74,472.1l-29.66,70.3h-21l-29.53-70.3h21L481,519.93l20.12-47.83Z" transform="translate(-271.39 -422.84)"/><path class="cls-1" d="M595.61,513H542.43c2,8.76,9.4,14.11,20.12,14.11,7.45,0,12.8-2.22,17.64-6.79L591,532.08c-6.53,7.45-16.33,11.37-29,11.37-24.31,0-40.12-15.29-40.12-36.2s16.07-36.19,37.5-36.19c20.65,0,36.59,13.85,36.59,36.45C596,509.08,595.74,511.3,595.61,513Zm-53.45-11.89h34.63c-1.44-8.88-8.1-14.63-17.25-14.63S543.6,492.09,542.16,501.11Z" transform="translate(-271.39 -422.84)"/><path class="cls-1" d="M654.92,539c-4.18,3-10.32,4.45-16.6,4.45-16.59,0-26.26-8.5-26.26-25.22V489.35H601.22V473.67h10.84V456.55h20.38v17.12H650v15.68H632.44V518c0,6,3.27,9.27,8.76,9.27a13.73,13.73,0,0,0,8.23-2.61Z" transform="translate(-271.39 -422.84)"/><path class="cls-1" d="M728.61,502.29V542.4H709.53v-8.75c-3.79,6.4-11.11,9.8-21.43,9.8-16.46,0-26.26-9.15-26.26-21.3,0-12.42,8.75-21,30.18-21h16.2c0-8.75-5.22-13.85-16.2-13.85-7.45,0-15.16,2.48-20.25,6.53l-7.32-14.24c7.71-5.49,19.08-8.49,30.31-8.49C716.19,471.06,728.61,481,728.61,502.29Zm-20.39,17.9V513h-14c-9.54,0-12.54,3.53-12.54,8.23,0,5.1,4.31,8.5,11.5,8.5C700,529.73,705.87,526.59,708.22,520.19Z" transform="translate(-271.39 -422.84)"/><path class="cls-1" d="M416.17,477l-6.34-6.35-2.51,3.88,0-.05-3.87,6v-.05l-.89,1.36,4.44,4.44a19.54,19.54,0,0,1,0,27.67l-44.58,44.59a19.57,19.57,0,0,1-27.67,0l-44.58-44.59a19.54,19.54,0,0,1,0-27.67l44.58-44.58a19.57,19.57,0,0,1,27.67,0L380,459.2l2-2.24.51-.58h0l.72-.82,0,0,1.83-2,.48-.56h0l.52-.58,1.56-1.76,0,0,.74-.83,0,0,.32-.34-17.07-17.06a32.54,32.54,0,0,0-46.06,0L280.94,477a32.56,32.56,0,0,0,0,46.07l44.58,44.58a32.54,32.54,0,0,0,46.06,0L416.17,523a32.56,32.56,0,0,0,0-46.07Z" transform="translate(-271.39 -422.84)"/><rect class="cls-1" x="396.93" y="445.04" width="0.05" height="0.01" transform="translate(-469.82 -11.8) rotate(-45)"/><path class="cls-1" d="M404.35,446.58c-.29.23-.58.48-.86.73a30.61,30.61,0,0,1,2.51,3.23c.28.42.55.91,0,1.32a.73.73,0,0,1-1.06-.25,35.64,35.64,0,0,0-2.57-3.25l-.83.76a29.1,29.1,0,0,1,3.83,5.59c.25.47.65,1.06,0,1.46s-1-.17-1.29-.66a27.5,27.5,0,0,0-3.66-5.31l-.83.79a27,27,0,0,1,5.39,9.35c0,.12.08.23.11.34.26-.4.51-.8.76-1.2q-.17-.48-.36-1c-.2-.52-.46-1.15.26-1.43s.92.28,1.13.76l.72-1.16c-.38-.87-.79-1.71-1.22-2.56-.23-.45-.46-1,.13-1.33s.93.1,1.18.56.61,1.14.89,1.72c.24-.38.47-.76.7-1.15A32.83,32.83,0,0,0,404.35,446.58Z" transform="translate(-271.39 -422.84)"/><polygon class="cls-1" points="131.48 17.01 131.74 16.91 131.54 17.07 131.48 17.01"/><polygon class="cls-1" points="137 15.06 137.06 15.05 137 15.07 137 15.06"/><path class="cls-1" d="M413,447.38c.5-.82,1.06-1.72.34-2.64a3.32,3.32,0,0,0-3.44-1A8,8,0,0,1,413,447.38Z" transform="translate(-271.39 -422.84)"/><path class="cls-1" d="M379,473.55l-.1-.06-.72.83-.75.87a16.76,16.76,0,0,1,3.83,2.51,24,24,0,0,1,6.55,9.31l1.11-1.65A25.73,25.73,0,0,0,379,473.55Z" transform="translate(-271.39 -422.84)"/><polygon class="cls-1" points="131.74 16.91 131.54 17.07 131.48 17.01 131.74 16.91"/><path class="cls-1" d="M409.21,444a9.17,9.17,0,0,0-1.19.38,25.33,25.33,0,0,1,2.06,2.73c.25.39.42.84,0,1.22a.67.67,0,0,1-1.05-.16c-.78-1.05-1.59-2.08-2.46-3.09q-.49.29-1,.6a33.15,33.15,0,0,1,4.59,6.72l.66-1.14c-.17-.34-.34-.68-.5-1a.72.72,0,0,1,.22-.94.71.71,0,0,1,.84,0,2.48,2.48,0,0,1,.36.31l.65-1.15C411.44,446.93,410.38,445.45,409.21,444Z" transform="translate(-271.39 -422.84)"/><path class="cls-1" d="M399.49,453.39c-.34-.44-.69-.88-1.06-1.3-.25.26-.5.51-.76.76a25,25,0,0,1,3.17,4.76c.23.44.25.92-.25,1.18s-.87-.08-1.1-.5a26.73,26.73,0,0,0-2.94-4.32l-.71.73c.24.32.47.64.69,1a.75.75,0,0,1-.13,1.08.7.7,0,0,1-1-.23c-.19-.25-.39-.48-.59-.72q-1.11,1.15-2.19,2.31a27.77,27.77,0,0,1,2.88,5c.23.52.53,1.11-.11,1.46s-1-.24-1.23-.73a39.15,39.15,0,0,0-2.64-4.58q-1.19,1.27-2.34,2.55a14.28,14.28,0,0,1,2.92,3.31.74.74,0,0,1-.14,1.08c-.4.3-.77.11-1-.23a22,22,0,0,0-2.8-3l-1.84,2.06a29.41,29.41,0,0,1,5.15,4.4c.36.4.9.87.37,1.42s-1.05.1-1.42-.3a27.2,27.2,0,0,0-5.15-4.34l-.92,1.05a31.18,31.18,0,0,1,2.74,2.3c.39.37,1,.81.46,1.4s-1,.16-1.44-.22a27.78,27.78,0,0,0-2.78-2.32l-1.2,1.38a23.58,23.58,0,0,1,4.41,3.56c1,1,1.78,2.07,2.65,3.13.33.4.73.91.17,1.34s-1-.05-1.32-.45c-.87-1-1.68-2-2.59-3a21.18,21.18,0,0,0-4.31-3.47l-1.21,1.4a26.28,26.28,0,0,1,5.9,5,37,37,0,0,1,4.1,6.52l1.17-1.76c-.27-.51-.55-1-.86-1.52-.12-.21-.26-.4-.36-.61-.2-.44-.43-.93.11-1.25s.82.08,1.06.44a17.63,17.63,0,0,1,1,1.55c.23-.36.47-.71.7-1.06a34.22,34.22,0,0,0-4.32-6.53c-.36-.42-.81-.94-.21-1.43s1,0,1.4.46a33.17,33.17,0,0,1,3.82,5.43,4.16,4.16,0,0,1,.27.62l1.11-1.69a33.2,33.2,0,0,0-2.24-3.44c-.33-.45-.74-1-.12-1.45s1,.11,1.37.55a29.78,29.78,0,0,1,2,2.88l1.83-2.8a34,34,0,0,0-1.63-5.1c-.21-.52-.48-1.14.24-1.43s1,.36,1.19.86a30.32,30.32,0,0,1,1.37,3.88l1-1.54a25.86,25.86,0,0,0-2.58-9.4c-.15-.31-.32-.62-.46-.95s-.19-.81.24-1.07.79,0,1,.34a9.37,9.37,0,0,1,.74,1.31A29.05,29.05,0,0,1,401,467l1-1.5a26.42,26.42,0,0,0-1-3.65,9.65,9.65,0,0,1-.35-1.16.71.71,0,0,1,.4-.88.68.68,0,0,1,.9.34,6,6,0,0,1,.51,1.09c.28.81.52,1.63.73,2.46l.8-1.24A27.33,27.33,0,0,0,399.49,453.39Zm-4.13,17.7c-.29.16-.52,0-.67-.25a14.51,14.51,0,0,0-2-2.74c-.38-.41-.12-.72.39-1a9.12,9.12,0,0,1,2.48,3.28A.49.49,0,0,1,395.36,471.09Z" transform="translate(-271.39 -422.84)"/><path class="cls-1" d="M323.17,493.34a.59.59,0,0,1,1,0c.51.85.16,1.51-.32,2.25l.95,1.35a2.64,2.64,0,0,1,.86-1.7.74.74,0,0,1,.89-.07.72.72,0,0,1,.35.82c-.31.89-.52,1.83-.86,2.73l1,1.44a26.37,26.37,0,0,1,9.12-14.41c.29-.23.59-.46.9-.66.46-.3,1-.59,1.41,0s0,1-.47,1.31A24.64,24.64,0,0,0,328.28,502l1.14,1.64c.11-.69.23-1.38.37-2.06.11-.49.42-.9,1-.75s.6.58.54,1c-.16,1.27-.33,2.54-.51,3.85.41.59.82,1.19,1.24,1.78a.65.65,0,0,1,.72-.37c.51.07.68.49.7.94s.05,1.05.07,1.59c.41.58.82,1.16,1.22,1.75-.12-.74-.19-1.5.79-1.58,1.23-.1.72,1.39,1,2.17a2.31,2.31,0,0,1,.07.47,20.05,20.05,0,0,0,.42,2.21l6.11,8.74a7.91,7.91,0,0,0,7.69-.34c.51-.27,1.09-.74,1.52,0s-.22,1.06-.68,1.41a8.63,8.63,0,0,1-6.91,1.22,12.19,12.19,0,0,0,1.53,1.66,9.29,9.29,0,0,0,3.59-.48c3.64-1.29,5.83-4,7.14-7.47.17-.45.28-.92.43-1.37s.39-1.1,1.08-.91.64.77.5,1.31c-1.24,4.65-3.8,8.17-8.43,9.94a9.59,9.59,0,0,1-2.09.54,9.65,9.65,0,0,0,1.52.65,9.92,9.92,0,0,0,5-2.93c.43-.45.88-1.19,1.57-.58s0,1.27-.41,1.75a11.92,11.92,0,0,1-2.61,2.1,12,12,0,0,0,2.36-.51,24.69,24.69,0,0,0,2.39-4.45c.25-.6.41-1.56,1.35-1.16s.38,1.2.14,1.8a25.91,25.91,0,0,1-1.15,2.44,15,15,0,0,0,2.68-2.43.78.78,0,0,1-.29-.81,8,8,0,0,1,.24-.93c2.3-7.79,2.63-15.51-.92-23.07-.25-.55-.5-1.19.22-1.52s1,.33,1.29.85a29.59,29.59,0,0,1,2.58,8.47,38.84,38.84,0,0,1-1.21,14.51l.13-.19,1.7-2.49a37.23,37.23,0,0,0,.69-6c0-.26,0-.53,0-.8.08-.53.15-1.14.87-1.12s.73.58.74,1.06a20.9,20.9,0,0,1,0,2.24c0,.48-.08,1-.13,1.44l1.31-1.92a39,39,0,0,0-.14-5.9c-.07-.74-.5-1.88.59-2s.9,1.07,1.08,1.79c.06.26.07.53.14,1.07,0,.84.07,1.67.08,2.5.42-.62.84-1.25,1.27-1.87,0-.88-.11-1.76-.21-2.65a28.42,28.42,0,0,0-4.51-12.89c-.21-.31-.43-.61-.61-.94a.81.81,0,0,1,.11-1.15c.43-.34.82-.12,1.12.21a10,10,0,0,1,.95,1.29,31.55,31.55,0,0,1,4.66,13.91l1.13-1.66a31.6,31.6,0,0,0-3-9.85,10.23,10.23,0,0,1-.53-1.17.75.75,0,0,1,.3-1,.72.72,0,0,1,1,.24,6.73,6.73,0,0,1,.69,1.07,35.43,35.43,0,0,1,2.94,8.68l.89-1.31c-.07-.3-.13-.6-.19-.91-.09-.48-.05-1,.54-1.17a.69.69,0,0,1,.83.34l.91-1.34a36.65,36.65,0,0,0-3.09-7.51c-.28-.51-.64-1.14.08-1.53s1.06.26,1.36.77a35.08,35.08,0,0,1,2.83,6.43.14.14,0,0,1,0,.06l5-7.38a1.62,1.62,0,0,1-.1-.18,34.37,34.37,0,0,0-4.4-6.67c-.36-.43-.81-.95-.21-1.44s1,0,1.4.46a33.6,33.6,0,0,1,3.82,5.43,3,3,0,0,1,.36,1.1l1.11-1.65a23.78,23.78,0,0,0-6.43-9.54,15.54,15.54,0,0,0-4-2.57l-.75.85a27.89,27.89,0,0,1,3.22,3.21c.32.38.55.82.16,1.28a.71.71,0,0,1-1.13,0c-1.06-1.1-2.15-2.17-3.33-3.21l-.78.9a37.17,37.17,0,0,1,8.7,11.24,2,2,0,0,1-.3,2.5,6.42,6.42,0,0,1-1.47-2.32,35.49,35.49,0,0,0-8-10.17l-.78.9a32.7,32.7,0,0,1,3.12,3.11c.36.4.71.89.16,1.39a.77.77,0,0,1-1.15-.12,39.6,39.6,0,0,0-3.21-3.14l-.78.9a30.77,30.77,0,0,1,4.86,5.43c.33.47.83,1,.19,1.54s-1.11,0-1.45-.52a28.72,28.72,0,0,0-4.68-5.2l-.79.92a28.65,28.65,0,0,1,7.07,9.24,23.86,23.86,0,0,1,1.73,4.18c.08.6.19,1.18-.4,1.34-.87.24-1.07-.52-1.28-1.11a29.37,29.37,0,0,0-6.72-11q-.72-.74-1.5-1.41l-.74.86a26.27,26.27,0,0,1,4.23,4.8c.29.43.38.93-.11,1.28s-.92,0-1.22-.38a27.66,27.66,0,0,0-4-4.43l-.68.79c.42.41.83.84,1.21,1.29a.78.78,0,0,1,0,1.15.73.73,0,0,1-1.12-.1c-.38-.38-.77-.73-1.17-1.08l-.71.82a21.13,21.13,0,0,1,3.75,5,27.89,27.89,0,0,1,2.87,7.61c.13.59.32,1.26-.42,1.5s-1-.46-1.12-1a38.06,38.06,0,0,0-2-5.73,20.3,20.3,0,0,0-4.17-6.09l-.63.73a21.39,21.39,0,0,1,5.65,11.18c.32,1.5.43,3.05.61,4.59.07.58.15,1.31-.66,1.38s-.89-.65-1-1.23c-.23-1.48-.35-3-.65-4.43a19.89,19.89,0,0,0-5-10.18l-.07-.06c-.26.29-.51.59-.77.89a9,9,0,0,1,.8,1,.83.83,0,0,1,0,1.16.71.71,0,0,1-1.12-.08,3.86,3.86,0,0,0-.79-.77l-.91,1.05a15.36,15.36,0,0,1,4,7c1.64,5.32,1.22,10.66-.1,16-.15.59-.24,1.45-1.15,1.19s-.55-1-.41-1.64c1.09-5,1.6-9.9.09-14.87a16.52,16.52,0,0,0-2.93-5.83,3.36,3.36,0,0,1-.48-.7l-.76.88c-1.28,1.51-2,1.54-3.2.08a2.57,2.57,0,0,0-.46-.07,3.89,3.89,0,0,0-4.07,2.48,7.78,7.78,0,0,0-.52,4.39c.28,2,.58,4,.85,6,.15,1.08,0,2.09-1.15,2.53s-2.06-.26-2.67-1.2a10.89,10.89,0,0,1-1.39-4.23c-.1-.53,0-1.17.62-1.3s.82.48,1,1c.44,1.37.43,2.94,1.68,4.15a2.12,2.12,0,0,0,.16-1.93c-.44-2.58-1.08-5.14-.75-7.78.38-3,2.21-5.21,4.63-5.72a4.18,4.18,0,0,1,.76-.1l-.72-.94c-4.24,1.35-5.41,4.87-5.86,8.9-.06.58-.06,1.32-.87,1.28s-.76-.72-.75-1.33c0-4.56,2.51-8.72,6.07-10.1a2.6,2.6,0,0,1,.36-.13l-.74-1c-3.82,1.89-5.6,5.22-6.33,9.3-.1.55-.34,1.09-1,1s-.67-.64-.6-1.14c.7-4.49,2.62-8.18,6.83-10.35l.13-.07-.65-.84c-.29.13-.61.22-.89.35-.47.23-1.08.16-1.13-.45-.06-.77.41-1.07.95-1.28l-.54-.7c-6.18,3.17-8.23,8.78-8.72,15.32,0,.32-.06.63-.1.95-.06.51-.2,1-.82,1s-.75-.5-.78-.94c.14-6.88,2.62-13.89,9.15-17.5l.24-.13-.54-.71c-5.8,3-8.54,8.08-9.69,14.3-.16.86.28,2.57-1.19,2.28-1.32-.25-.5-1.74-.35-2.63,1.12-6.6,4.17-11.94,10.19-15.28h0l-.61-.78a21.24,21.24,0,0,0-9.5,11c-.22.56-.32,1.27-1.12,1.45-.9-.2-.8-.83-.59-1.47A22.63,22.63,0,0,1,341,485.92l-.77-1a1.14,1.14,0,0,1-.66-.34.54.54,0,0,1-.12-.68l-.89-1.18a25.56,25.56,0,0,0-10.07,10.08c-.19.32-.36.65-.57,1s-.61.66-1.07.41a.76.76,0,0,1-.3-1.11,31.73,31.73,0,0,1,1.72-3.07,27,27,0,0,1,9.05-8.45l.24-.13-.24-.31a5.2,5.2,0,0,0-.57-.65c-.9.59-1.64,1.05-2.35,1.55a28.63,28.63,0,0,0-8.48,9.24c-.3.52-.55,1.38-1.37.95s-.34-1.21,0-1.78a29.69,29.69,0,0,1,9.4-10.09,2.51,2.51,0,0,1,2-.47,5,5,0,0,0-4-.36,14.9,14.9,0,0,0-10.32,9.17,5,5,0,0,0,.9,5.14l.21.31A1.84,1.84,0,0,1,323.17,493.34ZM375.84,487c.58-.46,1,0,1.32.42a33.86,33.86,0,0,1,4.14,7.35,2.62,2.62,0,0,1-.61,2.68c-.64-1.43-1.17-2.63-1.73-3.82a36.49,36.49,0,0,0-3.08-5.22C375.58,487.91,375.28,487.39,375.84,487ZM350.72,521.5c-.42.3-.9.49-1.3,0s-.2-.9.21-1.24c2.5-2.07,2.48-4.95,2.37-7.78a23.45,23.45,0,0,0-1-6c-.17-.57-.47-1.42.36-1.67s1.09.63,1.25,1.28a22.2,22.2,0,0,1,.84,3.83,19.46,19.46,0,0,1-.3,7.85A6.65,6.65,0,0,1,350.72,521.5Zm4.93-20.72a5.65,5.65,0,0,1,2.19,3,24.22,24.22,0,0,1,1.77,10.94c0,.64-.07,1.42-1,1.31s-.69-.8-.67-1.4c.15-4.27-.39-8.39-2.7-12.12A1.28,1.28,0,0,1,355.65,500.78ZM348,505.29a3.2,3.2,0,0,1,2.34-3.1,3.33,3.33,0,0,1,3.85,1.19,10,10,0,0,1,2,5.35c.58,4.8.38,8.43-1.25,11.88a10.28,10.28,0,0,1-.64,1.11c-.28.42-.67.76-1.2.46s-.5-.78-.22-1.24c2.47-4.19,2.19-8.68,1.41-13.21a7.6,7.6,0,0,0-1.23-3.1,1.86,1.86,0,0,0-2.07-.85,1.63,1.63,0,0,0-1.37,1.71c0,.59,0,1.33-.84,1.28S348,506,348,505.29Zm-7,1.72c.7,0,.78.61.85,1.15a24.31,24.31,0,0,0,1.13,6.27,9.3,9.3,0,0,0,1.31,2.37,2.63,2.63,0,0,0,2.85.94,2.51,2.51,0,0,0,2-2.08,9.93,9.93,0,0,0-.22-4.27c-.1-.8-.19-1.59-.3-2.38-.07-.51-.05-1,.55-1.15s.82.26.93.7c.69,2.64,1.38,5.3.49,8a4.28,4.28,0,0,1-7.33,1.48c-2.5-2.87-2.84-6.45-3-10C340.23,507.51,340.43,507,341.05,507Zm-.35-10.44a11.5,11.5,0,0,1,1.88-2.17c.42-.39.94-.66,1.4-.13s.08.91-.27,1.27c-3.25,3.25-4.5,7.34-4.62,11.77a19.19,19.19,0,0,0,2.17,10.37c1.21,2.1,2.79,3.64,5.49,3.39.62-.05,1.44-.06,1.43.85s-.78.75-1.34.8c-2.8.27-4.83-1.07-6.39-3.22a15.16,15.16,0,0,1-2.74-7.32C337,506,337.76,501.07,340.7,496.57Zm-10.08-15.51a36.25,36.25,0,0,0-8.1,10.05C321.86,487.06,326,482.55,330.62,481.06Z" transform="translate(-271.39 -422.84)"/></svg>